<svg width="43" height="42" viewBox="0 0 43 42" fill="none" xmlns="http://www.w3.org/2000/svg">
<path d="M27.1785 24.5C27.1785 27.3997 24.8282 29.75 21.9285 29.75C19.0287 29.75 16.6785 27.3997 16.6785 24.5C16.6785 21.6003 19.0287 19.25 21.9285 19.25C24.8282 19.25 27.1785 21.6003 27.1785 24.5Z" fill="#1C2E45" fill-opacity="0.6"/>
<path d="M27.1785 15.75V10.5H16.6785V15.75H7.92847V31.5H16.6785C18.0785 32.55 20.0035 33.25 21.9285 33.25C23.8535 33.25 25.7785 32.55 27.1785 31.5H35.9285V15.75H27.1785ZM18.4285 12.25H25.4285V15.75H18.4285V12.25ZM21.9285 31.5C18.0785 31.5 14.9285 28.35 14.9285 24.5C14.9285 20.65 18.0785 17.5 21.9285 17.5C25.7785 17.5 28.9285 20.65 28.9285 24.5C28.9285 28.35 25.7785 31.5 21.9285 31.5ZM34.1785 19.25H30.6785V17.5H34.1785V19.25Z" fill="white"/>
</svg>
