<svg width="56" height="56" viewBox="0 0 56 56" fill="none" xmlns="http://www.w3.org/2000/svg">
<rect width="56" height="56" rx="2" fill="white"/>
<path opacity="0.2" d="M16.1375 21.325C16.0469 21.4805 15.9995 21.6574 16 21.8375V34.1625C16.001 34.3405 16.0488 34.5151 16.1388 34.6687C16.2288 34.8224 16.3577 34.9495 16.5125 35.0375L27.5125 41.225C27.6608 41.3097 27.8292 41.3529 28 41.35L28.1125 28L16.1375 21.325Z" fill="#2DB324"/>
<path d="M40 34.1624V21.8374C39.999 21.6594 39.9512 21.4848 39.8612 21.3311C39.7712 21.1775 39.6423 21.0503 39.4875 20.9624L28.4875 14.7749C28.3393 14.6893 28.1711 14.6443 28 14.6443C27.8289 14.6443 27.6607 14.6893 27.5125 14.7749L16.5125 20.9624C16.3577 21.0503 16.2288 21.1775 16.1388 21.3311C16.0488 21.4848 16.001 21.6594 16 21.8374V34.1624C16.001 34.3404 16.0488 34.5151 16.1388 34.6687C16.2288 34.8223 16.3577 34.9495 16.5125 35.0374L27.5125 41.2249C27.6607 41.3105 27.8289 41.3555 28 41.3555C28.1711 41.3555 28.3393 41.3105 28.4875 41.2249L39.4875 35.0374C39.6423 34.9495 39.7712 34.8223 39.8612 34.6687C39.9512 34.5151 39.999 34.3404 40 34.1624V34.1624Z" stroke="#2DB324" stroke-width="2" stroke-linecap="round" stroke-linejoin="round"/>
<path d="M34.125 31.0625V24.5625L22 17.875" stroke="#2DB324" stroke-width="2" stroke-linecap="round" stroke-linejoin="round"/>
<path d="M39.8627 21.325L28.1127 28L16.1377 21.325" stroke="#2DB324" stroke-width="2" stroke-linecap="round" stroke-linejoin="round"/>
<path d="M28.1125 28L28 41.35" stroke="#2DB324" stroke-width="2" stroke-linecap="round" stroke-linejoin="round"/>
</svg>
