<svg width="32" height="33" viewBox="0 0 32 33" fill="none" xmlns="http://www.w3.org/2000/svg">
<path d="M28.9999 16.5171C28.9959 19.6943 27.8301 22.7604 25.7223 25.1379C23.6145 27.5153 20.7101 29.0399 17.5562 29.4246C17.486 29.4325 17.4149 29.4255 17.3475 29.4039C17.2802 29.3824 17.2182 29.3468 17.1657 29.2996C17.1131 29.2523 17.0712 29.1945 17.0426 29.1298C17.014 29.0652 16.9995 28.9952 16.9999 28.9246V19.5171H19.9999C20.137 19.5174 20.2727 19.4895 20.3986 19.4351C20.5244 19.3808 20.6378 19.3011 20.7315 19.2011C20.8253 19.1012 20.8975 18.9829 20.9437 18.8539C20.9899 18.7248 21.009 18.5876 20.9999 18.4508C20.9779 18.1937 20.8592 17.9544 20.6679 17.7812C20.4766 17.608 20.2268 17.5136 19.9687 17.5171H16.9999V14.5171C16.9999 13.9866 17.2107 13.4779 17.5857 13.1028C17.9608 12.7278 18.4695 12.5171 18.9999 12.5171H20.9999C21.137 12.5174 21.2727 12.4895 21.3986 12.4351C21.5244 12.3808 21.6378 12.3011 21.7315 12.2011C21.8253 12.1012 21.8975 11.9829 21.9437 11.8539C21.9899 11.7248 22.009 11.5876 21.9999 11.4508C21.9778 11.1932 21.8588 10.9536 21.667 10.7803C21.4751 10.607 21.2247 10.5129 20.9662 10.5171H18.9999C17.9391 10.5171 16.9217 10.9385 16.1715 11.6886C15.4214 12.4388 14.9999 13.4562 14.9999 14.5171V17.5171H11.9999C11.8629 17.5168 11.7272 17.5446 11.6013 17.599C11.4755 17.6533 11.3621 17.733 11.2683 17.833C11.1746 17.933 11.1023 18.0512 11.0562 18.1802C11.01 18.3093 10.9909 18.4465 10.9999 18.5833C11.0221 18.8409 11.141 19.0805 11.3329 19.2538C11.5248 19.4271 11.7752 19.5212 12.0337 19.5171H14.9999V28.9271C15.0004 28.9976 14.9859 29.0675 14.9574 29.132C14.9289 29.1966 14.887 29.2543 14.8346 29.3016C14.7822 29.3488 14.7204 29.3844 14.6532 29.406C14.5861 29.4277 14.5151 29.4348 14.4449 29.4271C11.2066 29.0327 8.2344 27.4369 6.11654 24.9556C3.99867 22.4743 2.88955 19.2884 3.00869 16.0283C3.25869 9.27831 8.72619 3.79081 15.4812 3.52831C17.2301 3.46057 18.9746 3.74625 20.6105 4.36826C22.2464 4.99028 23.7401 5.93586 25.0021 7.14843C26.2642 8.361 27.2687 9.81566 27.9556 11.4254C28.6425 13.0351 28.9977 14.7669 28.9999 16.5171Z" fill="#595959"/>
</svg>
