<svg width="32" height="33" viewBox="0 0 32 33" fill="none" xmlns="http://www.w3.org/2000/svg">
<path d="M20 16.5166C20 17.3077 19.7654 18.0811 19.3259 18.7389C18.8864 19.3967 18.2616 19.9094 17.5307 20.2121C16.7998 20.5149 15.9956 20.5941 15.2196 20.4397C14.4437 20.2854 13.731 19.9044 13.1716 19.345C12.6122 18.7856 12.2312 18.0729 12.0769 17.297C11.9225 16.521 12.0017 15.7168 12.3045 14.9859C12.6072 14.255 13.1199 13.6302 13.7777 13.1907C14.4355 12.7512 15.2089 12.5166 16 12.5166C17.0609 12.5166 18.0783 12.938 18.8284 13.6882C19.5786 14.4383 20 15.4557 20 16.5166ZM29 10.5166V22.5166C28.998 24.3725 28.2599 26.1518 26.9476 27.4642C25.6352 28.7765 23.8559 29.5146 22 29.5166H10C8.14409 29.5146 6.36477 28.7765 5.05245 27.4642C3.74012 26.1518 3.00199 24.3725 3 22.5166V10.5166C3.00199 8.6607 3.74012 6.88137 5.05245 5.56905C6.36477 4.25672 8.14409 3.51859 10 3.5166H22C23.8559 3.51859 25.6352 4.25672 26.9476 5.56905C28.2599 6.88137 28.998 8.6607 29 10.5166ZM22 16.5166C22 15.3299 21.6481 14.1699 20.9888 13.1832C20.3295 12.1965 19.3925 11.4275 18.2961 10.9733C17.1997 10.5192 15.9933 10.4004 14.8295 10.6319C13.6656 10.8634 12.5965 11.4348 11.7574 12.274C10.9182 13.1131 10.3468 14.1822 10.1153 15.3461C9.88378 16.5099 10.0026 17.7163 10.4567 18.8127C10.9108 19.9091 11.6799 20.8461 12.6666 21.5054C13.6533 22.1647 14.8133 22.5166 16 22.5166C17.5908 22.5149 19.116 21.8823 20.2408 20.7574C21.3657 19.6326 21.9983 18.1074 22 16.5166ZM25 9.0166C25 8.71993 24.912 8.42992 24.7472 8.18325C24.5824 7.93657 24.3481 7.74431 24.074 7.63078C23.7999 7.51725 23.4983 7.48755 23.2074 7.54542C22.9164 7.6033 22.6491 7.74616 22.4393 7.95594C22.2296 8.16572 22.0867 8.43299 22.0288 8.72397C21.9709 9.01494 22.0007 9.31654 22.1142 9.59063C22.2277 9.86472 22.42 10.099 22.6666 10.2638C22.9133 10.4286 23.2033 10.5166 23.5 10.5166C23.8978 10.5166 24.2794 10.3586 24.5607 10.0773C24.842 9.79596 25 9.41443 25 9.0166Z" fill="#595959"/>
</svg>
