<svg width="32" height="33" viewBox="0 0 32 33" fill="none" xmlns="http://www.w3.org/2000/svg">
<path d="M27 3.5166H5C4.46957 3.5166 3.96086 3.72732 3.58579 4.10239C3.21071 4.47746 3 4.98617 3 5.5166V27.5166C3 28.047 3.21071 28.5557 3.58579 28.9308C3.96086 29.3059 4.46957 29.5166 5 29.5166H27C27.5304 29.5166 28.0391 29.3059 28.4142 28.9308C28.7893 28.5557 29 28.047 29 27.5166V5.5166C29 4.98617 28.7893 4.47746 28.4142 4.10239C28.0391 3.72732 27.5304 3.5166 27 3.5166ZM12 22.5166C12 22.7818 11.8946 23.0362 11.7071 23.2237C11.5196 23.4112 11.2652 23.5166 11 23.5166C10.7348 23.5166 10.4804 23.4112 10.2929 23.2237C10.1054 23.0362 10 22.7818 10 22.5166V14.5166C10 14.2514 10.1054 13.997 10.2929 13.8095C10.4804 13.622 10.7348 13.5166 11 13.5166C11.2652 13.5166 11.5196 13.622 11.7071 13.8095C11.8946 13.997 12 14.2514 12 14.5166V22.5166ZM11 12.5166C10.7033 12.5166 10.4133 12.4286 10.1666 12.2638C9.91997 12.099 9.72771 11.8647 9.61418 11.5906C9.50065 11.3165 9.47094 11.0149 9.52882 10.724C9.5867 10.433 9.72956 10.1657 9.93934 9.95594C10.1491 9.74616 10.4164 9.6033 10.7074 9.54542C10.9983 9.48755 11.2999 9.51725 11.574 9.63078C11.8481 9.74431 12.0824 9.93657 12.2472 10.1832C12.412 10.4299 12.5 10.7199 12.5 11.0166C12.5 11.4144 12.342 11.796 12.0607 12.0773C11.7794 12.3586 11.3978 12.5166 11 12.5166ZM23 22.5166C23 22.7818 22.8946 23.0362 22.7071 23.2237C22.5196 23.4112 22.2652 23.5166 22 23.5166C21.7348 23.5166 21.4804 23.4112 21.2929 23.2237C21.1054 23.0362 21 22.7818 21 22.5166V18.0166C21 17.3536 20.7366 16.7177 20.2678 16.2488C19.7989 15.78 19.163 15.5166 18.5 15.5166C17.837 15.5166 17.2011 15.78 16.7322 16.2488C16.2634 16.7177 16 17.3536 16 18.0166V22.5166C16 22.7818 15.8946 23.0362 15.7071 23.2237C15.5196 23.4112 15.2652 23.5166 15 23.5166C14.7348 23.5166 14.4804 23.4112 14.2929 23.2237C14.1054 23.0362 14 22.7818 14 22.5166V14.5166C14.0012 14.2717 14.0923 14.0357 14.256 13.8535C14.4197 13.6712 14.6446 13.5554 14.888 13.528C15.1314 13.5005 15.3764 13.5634 15.5765 13.7046C15.7767 13.8458 15.918 14.0556 15.9738 14.2941C16.6502 13.8352 17.4389 13.5692 18.2552 13.5248C19.0714 13.4803 19.8844 13.659 20.6067 14.0417C21.329 14.4244 21.9335 14.9966 22.3551 15.6969C22.7768 16.3972 22.9997 17.1992 23 18.0166V22.5166Z" fill="#595959"/>
</svg>
