<svg width="60" height="60" viewBox="0 0 60 60" fill="none" xmlns="http://www.w3.org/2000/svg">
<path fill-rule="evenodd" clip-rule="evenodd" d="M57.0047 30.0002C57.0047 44.9144 44.9144 57.0047 30.0002 57.0047C15.086 57.0047 2.99561 44.9144 2.99561 30.0002C2.99561 15.086 15.086 2.99561 30.0002 2.99561C44.9144 2.99561 57.0047 15.086 57.0047 30.0002ZM48.8856 37.5827C48.8821 36.6089 48.6953 35.6776 48.3573 34.822C48.3563 34.8194 48.3602 34.8173 48.3619 34.8196L48.3652 34.8244C48.3673 34.8274 48.3719 34.8248 48.3705 34.8215C48.1511 34.2914 47.91 33.7727 47.6471 33.2655C47.6341 33.2402 47.6209 33.215 47.6075 33.1897L47.5842 33.1461L47.5709 33.1213L47.5704 33.1204L47.5703 33.1202L47.5702 33.1201C46.6251 31.3339 45.4156 29.7097 43.9939 28.2985C42.63 29.6578 41.0608 32.2788 40.175 35.5719C39.2495 39.0128 39.0802 43.1514 40.6452 47.2972C43.5915 46.3991 46.0672 44.4212 47.6116 41.8242C48.0028 41.2404 48.3089 40.5987 48.5275 39.9156C48.7592 39.1876 48.8856 38.4111 48.8856 37.6063V37.5827ZM39.9619 47.4948C39.5668 47.6226 39.1584 47.72 38.7385 47.7818C38.3722 47.8361 37.9975 47.8645 37.6158 47.8645C37.3617 47.8645 37.11 47.8527 36.8618 47.8279C34.5611 47.6003 32.5628 46.3454 31.3306 44.5283C31.3265 44.5221 31.3177 44.5212 31.3122 44.5262L31.3117 44.5267C31.3066 44.5313 31.2987 44.531 31.2942 44.526C30.9765 44.1733 30.5168 43.9527 30.0049 43.9527C29.4904 43.9527 29.0271 44.177 28.7094 44.5322C28.705 44.5371 28.6974 44.5374 28.6925 44.5329C28.6872 44.5281 28.6787 44.529 28.6747 44.5349C28.6381 44.5889 28.6006 44.6418 28.5631 44.6948L28.5631 44.6949C28.5608 44.6981 28.5585 44.7013 28.5562 44.7046C28.553 44.709 28.5497 44.7135 28.5465 44.7179C28.5409 44.7256 28.5353 44.7333 28.53 44.741C27.2902 46.4428 25.3603 47.6092 23.1515 47.8279H23.1503C22.9021 47.8527 22.6492 47.8657 22.394 47.8657C22.0122 47.8657 21.6376 47.8373 21.2712 47.783C20.8514 47.7217 20.4427 47.6251 20.0488 47.4968C21.6558 43.2025 21.4735 38.928 20.5212 35.3878C19.613 32.0111 17.995 29.2695 16.5205 27.7986C16.7127 27.621 16.9085 27.4472 17.1077 27.2772C17.3724 27.0515 17.6419 26.8329 17.9184 26.6213C18.0496 26.5197 18.1831 26.4204 18.3167 26.3235L18.3805 26.2774L18.3808 26.2772C18.4398 26.2347 18.4988 26.1922 18.559 26.1498L18.6405 26.093L18.7221 26.0363L18.8036 25.9796C18.8191 25.9685 18.8351 25.9579 18.8512 25.9472L18.8512 25.9472L18.8668 25.9368L18.8804 25.9276C18.8815 25.927 18.8826 25.9263 18.8837 25.9254L18.884 25.9252C18.8852 25.9243 18.8863 25.9235 18.8875 25.9229C18.8999 25.9146 18.912 25.9063 18.9241 25.898L18.9595 25.8741C18.9603 25.8735 18.9613 25.8731 18.9622 25.8727L18.9623 25.8726C18.965 25.8714 18.9672 25.8693 18.9702 25.8673C18.9962 25.8496 19.0234 25.8319 19.0506 25.8142L19.0506 25.8141L19.1046 25.7786L19.1333 25.7598C19.1529 25.7462 19.173 25.7332 19.1929 25.7204L19.2161 25.7054L19.2167 25.7049L19.218 25.704C19.2207 25.702 19.2236 25.7001 19.2265 25.6982L19.2277 25.6975L19.2293 25.6964L19.2329 25.6942L19.2347 25.693L19.238 25.691L19.2432 25.6877L19.2468 25.6853C20.0433 25.1724 20.8789 24.715 21.7475 24.318C22.5523 23.9492 23.3867 23.6337 24.2447 23.3749L24.2484 23.3735L24.2507 23.3729L24.2542 23.3719L24.2599 23.3703L24.2636 23.369C24.4468 23.3134 24.63 23.2614 24.8155 23.2118C26.4665 22.7674 28.2038 22.5299 29.9954 22.5299C31.9407 22.5299 33.821 22.81 35.5972 23.3311L35.6134 23.336L35.6433 23.3447C35.6587 23.3492 35.6741 23.3536 35.6894 23.3583C35.7024 23.363 35.7142 23.3666 35.7272 23.3701C36.6514 23.6479 37.5461 23.9906 38.4076 24.3936C39.2171 24.773 39.9972 25.2043 40.7429 25.6853C41.1376 25.9394 41.5229 26.2077 41.8987 26.489C42.2391 26.7442 42.57 27.009 42.8926 27.2843C43.0924 27.455 43.2888 27.6296 43.4817 27.8079C42.0097 29.2811 40.3966 32.0182 39.4903 35.3878C38.5381 38.9275 38.3558 43.2012 39.9619 47.4948ZM19.8365 35.5719C20.7624 39.0143 20.9314 43.1549 19.3643 47.3025C16.3459 46.3845 13.8205 44.3346 12.2823 41.647C11.9857 41.1754 11.7387 40.6696 11.5508 40.1354C11.0024 38.7633 10.8429 36.7011 11.7642 34.4911C11.9691 34.0193 12.1919 33.557 12.4315 33.1053C12.4321 33.1042 12.4325 33.1029 12.433 33.1018L12.4336 33.1006L12.4345 33.0984C13.3796 31.3164 14.5881 29.6965 16.008 28.2889C17.3741 29.6454 18.9486 32.2711 19.8365 35.5719ZM18.8781 23.9646C18.8792 23.9433 18.8792 23.9232 18.8792 23.902C18.8792 23.7034 18.8592 23.5108 18.8202 23.3241C18.7587 23.0168 18.6476 22.7261 18.4963 22.4613C18.182 21.7593 17.7648 21.1141 17.2625 20.5444C17.259 20.5397 17.2554 20.5361 17.2519 20.5326C17.1396 20.405 17.0226 20.2809 16.9009 20.1615L16.8935 20.1542L16.8859 20.1469L16.8808 20.142C16.8764 20.1378 16.8721 20.1337 16.8678 20.1295C16.8654 20.1272 16.863 20.1248 16.8607 20.1225C16.6314 19.898 15.9412 19.2551 14.906 18.7433C14.9056 18.7433 14.9054 18.7432 14.9051 18.7431L14.9048 18.7427L14.9044 18.7424L14.9039 18.7422L14.9038 18.7422L14.9037 18.7421L14.9036 18.7421C14.8292 18.7055 14.7523 18.6689 14.6743 18.6334C14.6732 18.6322 14.6732 18.6322 14.672 18.6322C14.3257 18.4881 13.9463 18.4077 13.5481 18.4077C13.32 18.4077 13.0978 18.4349 12.8839 18.4845C12.6144 18.5471 12.3592 18.6476 12.1252 18.78C12.0519 18.8213 11.9798 18.8662 11.9101 18.9135C11.8498 18.9608 11.7931 19.0151 11.7434 19.0742C11.6973 19.1345 11.6536 19.1983 11.6122 19.2633C11.3274 19.7124 11.162 20.2454 11.162 20.8174C11.162 21.1909 11.2329 21.549 11.3617 21.8775C11.3617 21.8781 11.362 21.8787 11.3623 21.8793C11.3624 21.8795 11.3626 21.8798 11.3627 21.8801C11.3628 21.8804 11.3629 21.8807 11.3629 21.8811C11.3658 21.8887 11.3691 21.8964 11.3723 21.9041C11.3756 21.9118 11.3788 21.9195 11.3818 21.9271L11.3824 21.928C11.3827 21.9284 11.383 21.929 11.383 21.9295C11.3865 21.9389 11.39 21.9472 11.3936 21.9554L11.3936 21.9555C11.6312 22.5311 11.9384 23.0711 12.3036 23.5651C12.4431 23.7542 12.5908 23.9351 12.7468 24.11C12.8685 24.2471 12.9962 24.3794 13.1285 24.5071C13.6804 25.0412 14.3127 25.4927 15.0064 25.8413C15.0868 25.8815 15.1672 25.9193 15.2487 25.9571C15.3574 26.008 15.4685 26.0552 15.5808 26.1001H15.582C15.6978 26.138 15.816 26.1687 15.9377 26.1911C16.1138 26.2242 16.2946 26.242 16.4802 26.242C17.2034 26.242 17.8972 25.9564 18.3592 25.5329C18.5011 25.4029 18.7871 24.7611 18.8509 24.3085C18.8662 24.1951 18.8757 24.0804 18.8781 23.9646ZM48.9211 20.8529C48.9211 21.2795 48.8289 21.6849 48.6646 22.0501C48.6422 22.0997 48.6185 22.1493 48.5925 22.1978L48.5813 22.2236L48.5808 22.2248L48.5807 22.2249L48.5807 22.2251C48.5549 22.2846 48.4957 22.4215 48.4767 22.4566C48.4739 22.4623 48.4707 22.468 48.4676 22.4735L48.4578 22.4909C48.4259 22.5512 48.3928 22.6114 48.3585 22.6705C48.3514 22.6835 48.3432 22.6965 48.3361 22.7095L48.3277 22.7239C48.3222 22.7332 48.3167 22.7423 48.3112 22.7509C48.2959 22.778 48.2795 22.805 48.263 22.8321L48.2628 22.8324C48.199 22.9376 48.1328 23.0416 48.0642 23.1432C48.0594 23.1499 48.0549 23.1565 48.0504 23.1633L48.0424 23.1754L48.0371 23.1834C48.0323 23.1905 48.0273 23.1976 48.0223 23.2047C48.0173 23.2118 48.0122 23.2189 48.0075 23.226L48.001 23.2355C47.9983 23.2394 47.9955 23.2433 47.9928 23.2472C47.9877 23.2543 47.9827 23.2614 47.978 23.2685C47.9733 23.2755 47.9683 23.2823 47.9633 23.289L47.9633 23.2891L47.9632 23.2892L47.9583 23.2958C47.955 23.3004 47.9516 23.3051 47.9484 23.3099L47.934 23.3301L47.9177 23.3524C47.9114 23.361 47.9052 23.3696 47.899 23.3782C47.895 23.3838 47.8909 23.3894 47.887 23.395C47.679 23.6774 47.4521 23.9457 47.2074 24.1962C47.0715 24.3357 46.9309 24.4692 46.7855 24.5981C46.1461 25.1618 45.4099 25.6192 44.6062 25.943L44.605 25.9418L44.6027 25.94C44.602 25.9395 44.6013 25.939 44.6006 25.9384C44.6001 25.938 44.5996 25.9376 44.5992 25.9371C44.5365 25.9642 44.4727 25.9902 44.4077 26.0127C44.3479 26.0309 44.2896 26.0467 44.2288 26.0632L44.2287 26.0632L44.2287 26.0633C44.1668 26.0801 44.1022 26.0976 44.0307 26.1191L44.0291 26.1197L44.0277 26.12C44.0262 26.1202 44.0245 26.1202 44.0225 26.1202H44.0224C43.8298 26.1604 43.6312 26.1817 43.4268 26.1817C42.8182 26.1817 42.2544 25.995 41.7876 25.6759C41.4638 25.2989 41.2345 24.838 41.1376 24.331C41.1163 24.2222 41.1022 24.1123 41.0939 24.0001C41.088 23.928 41.0856 23.8571 41.0856 23.7838C41.0856 23.4706 41.1352 23.1681 41.2274 22.8856V22.8844C41.3054 22.6894 41.3917 22.4968 41.4862 22.3101V22.3089C41.8349 21.6152 42.2863 20.9829 42.8205 20.431C42.9482 20.2986 43.0805 20.171 43.2176 20.0492C43.8499 19.4843 44.5779 19.0234 45.3744 18.6949C45.3771 18.6938 45.3798 18.6927 45.3824 18.6917C45.3855 18.6904 45.3884 18.6891 45.391 18.6878L45.3944 18.6865L45.399 18.6847L45.4046 18.6824L45.4182 18.6772C45.4223 18.6754 45.4261 18.6739 45.43 18.6724C45.4314 18.6719 45.4328 18.6713 45.4342 18.6708L45.4418 18.6677C45.4424 18.6677 45.4427 18.6674 45.443 18.6671L45.4431 18.667C45.4433 18.6668 45.4436 18.6665 45.4442 18.6665C45.7739 18.5365 46.132 18.4656 46.5078 18.4656C46.6721 18.4656 46.8328 18.4786 46.9888 18.5058C47.3776 18.5708 47.7404 18.7126 48.0619 18.9159C48.1269 18.9572 48.1907 19.001 48.251 19.0471C48.3101 19.0967 48.3644 19.1534 48.4117 19.2137C48.459 19.2834 48.5039 19.3543 48.5452 19.4288V19.43C48.7863 19.8507 48.9211 20.3352 48.9211 20.8529ZM37.2021 20.587C38.7314 19.1983 39.6911 17.1951 39.6911 14.9674C39.6911 14.2666 39.5965 13.5871 39.4169 12.943C39.3105 12.5601 39.1758 12.189 39.0139 11.8321C38.9997 11.8001 38.9843 11.7671 38.969 11.7351C38.449 10.9421 37.5531 10.4186 36.5344 10.4186C35.9541 10.4186 35.4129 10.5888 34.9591 10.8819C34.7735 11.0249 34.5939 11.1761 34.4213 11.3357L34.3788 11.3747C32.9051 12.7586 31.9844 14.724 31.9844 16.9056C31.9844 17.7671 32.1286 18.5932 32.3921 19.365C32.534 19.7774 32.8318 20.2123 33.0209 20.4522C33.4274 20.9001 33.9722 21.2216 34.5868 21.3481C34.7771 21.3871 34.9744 21.4083 35.1765 21.4083C35.849 21.4083 36.4671 21.1802 36.9599 20.7973C37.0426 20.7288 37.123 20.6591 37.2021 20.587ZM27.8847 16.8583C27.8847 17.7648 27.7263 18.6346 27.4344 19.4406C27.4143 19.4961 27.3942 19.5505 27.373 19.6049C27.2465 19.9133 27.0681 20.1958 26.8494 20.4392C26.5327 20.7926 26.1321 21.068 25.6782 21.2334C25.3674 21.3469 25.033 21.4083 24.6832 21.4083C23.9942 21.4083 23.3619 21.1684 22.8632 20.769C22.8005 20.7158 22.7379 20.6614 22.6764 20.6059L22.6752 20.6047C21.1424 19.2161 20.1792 17.2105 20.1792 14.9792C20.1792 14.1118 20.3246 13.2786 20.5929 12.5021C20.6402 12.3662 20.691 12.2315 20.7453 12.098C20.7453 12.098 20.7453 12.0976 20.7456 12.0973C20.7457 12.097 20.746 12.0968 20.7465 12.0968C20.782 12.0211 20.8198 11.9479 20.8612 11.8758C21.3634 11.0048 22.3042 10.4186 23.382 10.4186C24.0012 10.4186 24.5756 10.6124 25.0472 10.9421C25.1902 11.0568 25.3272 11.1761 25.4608 11.3002L25.4811 11.3191L25.4814 11.3193L25.4814 11.3194C25.4945 11.3314 25.5075 11.3434 25.5199 11.3558C26.9771 12.7373 27.8847 14.6921 27.8847 16.8583ZM23.7238 31.0721C23.8713 31.0467 24.0321 31.0509 24.2015 31.1008C24.419 31.1567 24.6122 31.2733 24.762 31.4314C24.7774 31.4454 24.7928 31.4597 24.8082 31.4746L24.8093 31.4756L24.8102 31.4767C25.0926 31.8246 25.2963 32.2393 25.3952 32.692L25.3953 32.6921L25.3953 32.6922C25.4381 32.8958 25.462 33.1054 25.462 33.3211C25.462 33.9701 25.2508 34.5698 24.8937 35.0556C24.8533 35.1176 24.8072 35.1755 24.7562 35.2286C24.7266 35.2631 24.6963 35.2968 24.6652 35.3298L24.6633 35.3319L24.661 35.3334C24.6128 35.365 24.5622 35.396 24.5092 35.425C24.4274 35.4738 24.3392 35.5129 24.2462 35.5408C24.1686 35.5662 24.0873 35.5847 24.0025 35.5933C23.7497 35.6191 23.4686 35.5569 23.1647 35.3326L23.1629 35.3314L23.1615 35.3298C23.1514 35.3191 23.1413 35.3083 23.1314 35.2974C23.024 35.2028 22.9339 35.089 22.8667 34.9613C22.7056 34.7229 22.5785 34.4592 22.4931 34.1777C22.4181 33.9311 22.374 33.6715 22.3668 33.4023C22.3656 33.3746 22.3656 33.3482 22.3656 33.3212V33.3211C22.3656 32.8672 22.4681 32.4383 22.6528 32.0546C22.7238 31.9065 22.8068 31.7654 22.9007 31.6325C23.0333 31.413 23.2356 31.2404 23.477 31.1453C23.5536 31.1128 23.6362 31.0873 23.7238 31.0721ZM35.5892 31.0721C35.7367 31.0467 35.8976 31.0509 36.0669 31.1008C36.2845 31.1567 36.4777 31.2733 36.6274 31.4314C36.6428 31.4454 36.6583 31.4597 36.6737 31.4746L36.6748 31.4756L36.6757 31.4767C36.9581 31.8246 37.1618 32.2393 37.2607 32.692L37.2607 32.6921L37.2607 32.6922C37.3036 32.8958 37.3274 33.1054 37.3274 33.3211C37.3274 33.9701 37.1163 34.5698 36.7591 35.0556C36.7187 35.1176 36.6726 35.1755 36.6216 35.2286C36.5921 35.2631 36.5618 35.2968 36.5307 35.3298L36.5288 35.3319L36.5264 35.3334C36.4782 35.365 36.4276 35.396 36.3746 35.425C36.2929 35.4738 36.2047 35.5129 36.1117 35.5408C36.034 35.5662 35.9527 35.5847 35.868 35.5933C35.6152 35.6191 35.3341 35.5569 35.0301 35.3326L35.0284 35.3314L35.0269 35.3298L35.0079 35.3094L34.9968 35.2974C34.8894 35.2028 34.7994 35.089 34.7321 34.9613C34.571 34.7229 34.4439 34.4592 34.3585 34.1777C34.2835 33.9311 34.2394 33.6715 34.2323 33.4023C34.2311 33.3746 34.2311 33.3482 34.2311 33.3212V33.3211C34.2311 32.8672 34.3335 32.4383 34.5182 32.0546C34.5892 31.9065 34.6723 31.7654 34.7661 31.6325C34.8987 31.413 35.101 31.2404 35.3424 31.1453C35.419 31.1128 35.5016 31.0873 35.5892 31.0721ZM32.9216 36.2651C32.9279 36.1867 32.9311 36.1075 32.9311 36.0274C32.9311 34.4087 31.6188 33.0965 30.0002 33.0965C28.3815 33.0965 27.0692 34.4087 27.0692 36.0274C27.0692 36.0797 27.0706 36.1317 27.0733 36.1833C27.0573 37.0785 26.3634 37.8428 25.4895 37.8628C25.4412 37.8605 25.3926 37.8593 25.3438 37.8593C23.7251 37.8593 22.4129 39.1715 22.4129 40.7902C22.4129 42.4089 23.7251 43.7211 25.3438 43.7211C26.4065 43.7211 27.3372 43.1554 27.8511 42.3088C29.037 41.0915 30.8924 41.0088 32.1519 42.3088C32.6687 43.1423 33.5919 43.6974 34.6447 43.6974C36.2634 43.6974 37.5756 42.3852 37.5756 40.7665C37.5756 39.1478 36.2634 37.8356 34.6447 37.8356C34.5608 37.8356 34.4777 37.8391 34.3957 37.8461C33.5484 37.8046 32.9586 36.9741 32.9216 36.2651ZM32.3862 39.1226C32.3945 39.0541 32.3992 38.9832 32.3992 38.9111C32.3992 38.6936 32.3591 38.4844 32.2834 38.293C32.0258 37.8841 31.6027 37.5898 31.1075 37.5059C30.8983 37.513 30.6974 37.5567 30.5131 37.6323L30.4953 37.6394C30.4504 37.6583 30.4079 37.6784 30.3653 37.7009C30.3098 37.7304 30.2554 37.7623 30.2034 37.7978C30.1975 37.7996 30.1916 37.8016 30.1857 37.8037L30.1854 37.8038L30.1851 37.8039C30.1794 37.8059 30.1737 37.8079 30.168 37.8096C30.1148 37.8262 30.0581 37.8356 29.999 37.8356C29.9316 37.8356 29.8678 37.8238 29.8075 37.8025C29.8051 37.8019 29.8031 37.801 29.801 37.8002L29.7976 37.7988L29.7945 37.7978C29.7425 37.7623 29.6881 37.7304 29.6326 37.7009C29.5901 37.6784 29.5475 37.6583 29.5026 37.6394L29.4849 37.6323C29.3348 37.5709 29.1741 37.5295 29.0062 37.513C28.4472 37.5697 27.9662 37.8912 27.6921 38.3497C27.633 38.5258 27.5999 38.7149 27.5999 38.9111C27.5999 38.982 27.6046 39.0529 27.6129 39.1226V39.1238C27.6176 39.1581 27.6223 39.19 27.6282 39.2231V39.2243C27.6424 39.2822 27.6661 39.3365 27.6956 39.385V39.3862C27.7263 39.4252 27.7571 39.4642 27.7901 39.502C28.2487 40.0385 28.8999 40.4061 29.6373 40.4971C29.7472 40.5112 29.8583 40.5183 29.9718 40.5195H29.9907H30.0084H30.0273C30.1514 40.5183 30.272 40.5101 30.3913 40.4935C31.1158 40.3954 31.7563 40.0314 32.209 39.502C32.242 39.4642 32.2727 39.4252 32.3034 39.3863L32.3035 39.3862V39.385C32.3342 39.3353 32.3567 39.2822 32.3709 39.2243V39.2231C32.3768 39.19 32.3827 39.1569 32.3862 39.1238V39.1226Z" fill="#410075"/>
</svg>
