<svg width="25" height="25" viewBox="0 0 25 25" fill="none" xmlns="http://www.w3.org/2000/svg">
<path d="M15.9116 14.1418C16.0154 14.0727 16.1349 14.0306 16.2591 14.0193C16.3834 14.008 16.5085 14.0279 16.6231 14.0772L21.0444 16.0581C21.1934 16.1218 21.3177 16.232 21.3989 16.3723C21.48 16.5125 21.5135 16.6753 21.4944 16.8362C21.3487 17.9247 20.8127 18.9232 19.986 19.6461C19.1593 20.369 18.0982 20.7671 17 20.7662C13.6185 20.7662 10.3755 19.4229 7.98439 17.0318C5.5933 14.6407 4.25 11.3977 4.25 8.01621C4.24916 6.91803 4.6472 5.85692 5.37009 5.03021C6.09298 4.20351 7.09152 3.66749 8.18 3.52184C8.34091 3.50272 8.50368 3.53623 8.64395 3.61735C8.78422 3.69847 8.89444 3.82284 8.95813 3.97184L10.9391 8.39684C10.9877 8.51049 11.0076 8.63441 10.9968 8.75758C10.986 8.88074 10.9449 8.99932 10.8772 9.10278L8.87375 11.485C8.80269 11.5922 8.76066 11.716 8.75179 11.8444C8.74291 11.9727 8.76749 12.1012 8.82313 12.2172C9.59844 13.8043 11.2391 15.4253 12.8309 16.1931C12.9475 16.2485 13.0766 16.2725 13.2053 16.2628C13.334 16.2531 13.458 16.21 13.565 16.1378L15.9116 14.1418Z" stroke="#252525" stroke-width="1.5" stroke-linecap="round" stroke-linejoin="round"/>
</svg>
